# xmcd
#
# Track frame offsets:
#	150
#	13527
#	26152
#	37689
#	49706
#	61785
#	73420
#	85062
#	98326
#	113336
#	125383
#	137010
#	149109
#	161219
#	174521
#	186075
#	198380
#	210704
#	223028
#	234108
#	245680
#
# Disc length: 3444 seconds
#
# Revision: 1
# Processed by: cddbd v1.5.1PL2 Copyright (c) Steve Scherf et al.
# Submitted via: audiograbber 1.83.01
#
DISCID=230d7215
DTITLE=Sam and Dave - The best of Sam and Dave
DYEAR=1987
DGENRE=
TTITLE0=A Place Nobody Can Find
TTITLE1=Good Night Baby
TTITLE2=I take what I want
TTITLE3=Sweet home
TTITLE4=You don't know like I know
TTITLE5=Jond on, I'm coming
TTITLE6=Said I wasn't gonna tell nobody
TTITLE7=You got me hummin'
TTITLE8=When something is wrong with my baby
TTITLE9=Small portion of your love
TTITLE10=Soothe me
TTITLE11=Soul man
TTITLE12=May I baby
TTITLE13=I thank you
TTITLE14=Wrap it up
TTITLE15=Still is the night
TTITLE16=You don't know what you mean to me
TTITLE17=This is your world
TTITLE18=Can't you find another way (of doing it)
TTITLE19=Soul sister, Brown sugar
TTITLE20=Come on in
EXTD=
EXTT0=
EXTT1=
EXTT2=
EXTT3=
EXTT4=
EXTT5=
EXTT6=
EXTT7=
EXTT8=
EXTT9=
EXTT10=
EXTT11=
EXTT12=
EXTT13=
EXTT14=
EXTT15=
EXTT16=
EXTT17=
EXTT18=
EXTT19=
EXTT20=
PLAYORDER=
